<svg id="Layer_1" data-name="Layer 1" xmlns="http://www.w3.org/2000/svg" viewBox="0 0 363.77 53.84"><defs><style>.cls-1{fill:#fff;}</style></defs><rect class="cls-1" width="363.77" height="52.87"/><path d="M168.82,7.37s2.62-2,6.93-.27c-.28,1.78-.83,5.11,1.69,5.42a1.89,1.89,0,0,0,2-.64,3.86,3.86,0,0,0,0-3.09,4.61,4.61,0,0,0-.58-.92c-.36-.5-.7-1-1-1.52A11.05,11.05,0,0,0,180.66,0s.73,4.56,3,6.25c-.17-.12-1.16,1.57-1.23,1.72a5.18,5.18,0,0,0-.3,2.47c0,.57,0,1.52.57,1.87a2.44,2.44,0,0,0,2.45,0,2.65,2.65,0,0,0,1-2.18c0-.22-.23-3.15-.47-3,0,0,3.45-1.91,6.66,0-.31-.18-1.86,1.44-2.07,1.66a9,9,0,0,0-2.23,4,1.86,1.86,0,0,0,.2,1.69c.46.51,1.6.61,1.86,1.32.49,1.32-1.89.13-2.23,0a20.82,20.82,0,0,0-5.26-.93,29,29,0,0,0-10.46,1.47s-.8-.52.16-1.23,1.49-.67,1.53-1S173,8.91,168.82,7.37Z"/><path d="M93.6,18.17l.45,8.42-.6,0a10.76,10.76,0,0,0-1.13-3.54,7.69,7.69,0,0,0-2.27-2.48,7.85,7.85,0,0,0-2.91-1.26A21.82,21.82,0,0,0,82.7,19h-6v15.3h1.57a16,16,0,0,0,3.59-.3,4.07,4.07,0,0,0,2-1.1,4.67,4.67,0,0,0,1.09-1.75,14.86,14.86,0,0,0,.58-3l.61,0L86,41.83h-.6a14.21,14.21,0,0,0-.69-3.16,6,6,0,0,0-1.27-2,4.81,4.81,0,0,0-2-1.2,11.36,11.36,0,0,0-3.19-.38H76.7v5.84A49.94,49.94,0,0,0,76.89,46a8.36,8.36,0,0,0,.7,2.66,5.58,5.58,0,0,0,2.71,2.69,11.36,11.36,0,0,0,4.8.86,15.36,15.36,0,0,0,5.26-.78A7.86,7.86,0,0,0,93.81,49a9.32,9.32,0,0,0,1.53-2.5,20.75,20.75,0,0,0,1.09-3.7l.6,0L96.69,53H65.48v-.59A8.64,8.64,0,0,0,67.9,52a4.43,4.43,0,0,0,1.66-1.07,4.28,4.28,0,0,0,1.11-2.08A17.37,17.37,0,0,0,71,45V26.18a17.3,17.3,0,0,0-.31-3.86,4.23,4.23,0,0,0-1.11-2.08,4.17,4.17,0,0,0-1.63-1.07,8.81,8.81,0,0,0-2.45-.41v-.59Z"/><path d="M101.54,53v-.62a5.48,5.48,0,0,0,4.08-1.45,4.28,4.28,0,0,0,1.11-2.08A18.14,18.14,0,0,0,107,45V26.18a18.27,18.27,0,0,0-.32-4,4.25,4.25,0,0,0-1.22-2.11,4.55,4.55,0,0,0-1.64-1,7.88,7.88,0,0,0-2.31-.36v-.59h16.71v.59a9.28,9.28,0,0,0-2.35.38,4.46,4.46,0,0,0-1.62,1,4.28,4.28,0,0,0-1.21,2.12,18.64,18.64,0,0,0-.31,3.95V40.89c0,2.26.06,3.94.18,5a8.26,8.26,0,0,0,.71,2.7,5.68,5.68,0,0,0,2.72,2.69,11.28,11.28,0,0,0,4.79.86,14.83,14.83,0,0,0,5.24-.81,8,8,0,0,0,3.49-2.48,10.6,10.6,0,0,0,1.51-2.6,23.41,23.41,0,0,0,1.08-3.83l.63.05L132.77,53Z"/><path d="M136.89,53v-.62A5.48,5.48,0,0,0,141,50.91a4.28,4.28,0,0,0,1.11-2.08,18.14,18.14,0,0,0,.3-3.86V26.18a18.27,18.27,0,0,0-.32-4,4.25,4.25,0,0,0-1.22-2.11,4.55,4.55,0,0,0-1.64-1,7.88,7.88,0,0,0-2.31-.36v-.59h16.72v.59a9.29,9.29,0,0,0-2.36.38,4.46,4.46,0,0,0-1.62,1,4.19,4.19,0,0,0-1.2,2.12,17.85,17.85,0,0,0-.32,3.95V40.89a47.78,47.78,0,0,0,.19,5,8,8,0,0,0,.7,2.7,5.68,5.68,0,0,0,2.72,2.69,11.28,11.28,0,0,0,4.79.86,14.83,14.83,0,0,0,5.24-.81,8,8,0,0,0,3.5-2.48,10.57,10.57,0,0,0,1.5-2.6,24.33,24.33,0,0,0,1.09-3.83l.62.05L168.12,53Z"/><path d="M189,18.17v.59a8.57,8.57,0,0,0-2.42.41,4.46,4.46,0,0,0-1.67,1.07,4.79,4.79,0,0,0-1.25,2.83,28.33,28.33,0,0,0-.16,3.11V45a20.8,20.8,0,0,0,.21,3.34,5.34,5.34,0,0,0,.68,2,4.26,4.26,0,0,0,1.75,1.52,8.09,8.09,0,0,0,2.86.6V53H172.24v-.59a8.42,8.42,0,0,0,2.45-.42,4.46,4.46,0,0,0,1.63-1.06,4.13,4.13,0,0,0,1.13-2.06,19.24,19.24,0,0,0,.28-3.88V26.18a19.24,19.24,0,0,0-.28-3.88,4.13,4.13,0,0,0-1.13-2.06,4.17,4.17,0,0,0-1.65-1.07,8.78,8.78,0,0,0-2.43-.41v-.59Z"/><path d="M195.48,52.87l.08-10.53.6,0a22.12,22.12,0,0,0,2.62,6.33Q201.63,53,205.94,53A6.74,6.74,0,0,0,212.88,46a8.6,8.6,0,0,0-.44-2.65,7.53,7.53,0,0,0-1.16-2.32,9,9,0,0,0-2.13-1.91,38.88,38.88,0,0,0-4.2-2.32,42.72,42.72,0,0,1-3.81-2.07A10.88,10.88,0,0,1,199,33.06a8.2,8.2,0,0,1-2.25-5.84,10.09,10.09,0,0,1,3.32-7.44,9.48,9.48,0,0,1,6.57-2.5,10.07,10.07,0,0,1,2.27.24,18.7,18.7,0,0,1,2.8,1c.88.34,1.47.56,1.78.65a3.19,3.19,0,0,0,.84.14c.61,0,1-.43,1.23-1.3h.6l.18,10.12h-.6c-.47-1.61-.87-2.85-1.21-3.71A13.65,13.65,0,0,0,213.32,22a9.22,9.22,0,0,0-2.82-2.95A6.55,6.55,0,0,0,207,18.1a5.79,5.79,0,0,0-5.73,3.8,6,6,0,0,0-.4,2.14q0,4.26,5.61,6.87l3.68,1.73A16.56,16.56,0,0,1,216.25,37a9.54,9.54,0,0,1,2.14,6.18,10.84,10.84,0,0,1-1,4.48,10.13,10.13,0,0,1-4.08,4.59,12.4,12.4,0,0,1-6.41,1.61,16.6,16.6,0,0,1-6.49-1.3c-1.08-.46-1.73-.72-1.94-.79a2.19,2.19,0,0,0-.7-.1,1.73,1.73,0,0,0-1.73,1.22Z"/><path d="M225.86,52.87l.08-10.53.6,0a22.12,22.12,0,0,0,2.62,6.33Q232,53,236.32,53A6.74,6.74,0,0,0,243.26,46a8.6,8.6,0,0,0-.44-2.65,7.53,7.53,0,0,0-1.16-2.32,9,9,0,0,0-2.13-1.91,38.88,38.88,0,0,0-4.2-2.32,42.72,42.72,0,0,1-3.81-2.07,10.88,10.88,0,0,1-2.13-1.71,8.2,8.2,0,0,1-2.25-5.84,10.09,10.09,0,0,1,3.32-7.44,9.48,9.48,0,0,1,6.57-2.5,10.23,10.23,0,0,1,2.28.24,19,19,0,0,1,2.79,1c.88.34,1.47.56,1.78.65a3.19,3.19,0,0,0,.84.14c.61,0,1-.43,1.23-1.3h.6l.18,10.12h-.6c-.47-1.61-.87-2.85-1.21-3.71A13.65,13.65,0,0,0,243.7,22a9.22,9.22,0,0,0-2.82-2.95,6.55,6.55,0,0,0-3.55-.95,5.79,5.79,0,0,0-5.73,3.8,6,6,0,0,0-.4,2.14q0,4.26,5.61,6.87l3.69,1.73A16.6,16.6,0,0,1,246.63,37a9.54,9.54,0,0,1,2.14,6.18,10.84,10.84,0,0,1-1,4.48,10.13,10.13,0,0,1-4.08,4.59,12.4,12.4,0,0,1-6.41,1.61,16.64,16.64,0,0,1-6.49-1.3c-1.08-.46-1.73-.72-1.94-.79a2.19,2.19,0,0,0-.7-.1,1.73,1.73,0,0,0-1.73,1.22Z"/><path d="M271.67,18.17v.59a8.7,8.7,0,0,0-2.42.41,4.51,4.51,0,0,0-1.66,1.07,4.68,4.68,0,0,0-1.25,2.83,26,26,0,0,0-.16,3.11V45a20.8,20.8,0,0,0,.21,3.34,5.34,5.34,0,0,0,.68,2,4.2,4.2,0,0,0,1.75,1.52,8.08,8.08,0,0,0,2.85.6V53H255v-.59A8.28,8.28,0,0,0,257.4,52,4.42,4.42,0,0,0,259,50.91a4,4,0,0,0,1.12-2.06,18.37,18.37,0,0,0,.29-3.88V26.18a18.37,18.37,0,0,0-.29-3.88A4,4,0,0,0,259,20.24a4.17,4.17,0,0,0-1.65-1.07,8.85,8.85,0,0,0-2.43-.41v-.59Z"/><path d="M322.09,18.76a8.79,8.79,0,0,0-2.39.39A4.65,4.65,0,0,0,318,20.21a3.65,3.65,0,0,0-.87,1.19,5.56,5.56,0,0,0-.39,1.64,23.77,23.77,0,0,0-.18,3.14V45a17.72,17.72,0,0,0,.31,3.9,4.08,4.08,0,0,0,1.13,2,6.18,6.18,0,0,0,4,1.48V53H305.38v-.59a8.34,8.34,0,0,0,2.44-.42,4.66,4.66,0,0,0,1.66-1.06,4.28,4.28,0,0,0,1.11-2.08A18,18,0,0,0,310.9,45V22.18L297.42,53h-.55L283.48,22.63V45a18.23,18.23,0,0,0,.3,3.88,4.26,4.26,0,0,0,1.11,2.06A4.51,4.51,0,0,0,286.55,52a8.7,8.7,0,0,0,2.42.41V53H276.92v-.59a8.7,8.7,0,0,0,2.42-.41A4.51,4.51,0,0,0,281,50.91a4.28,4.28,0,0,0,1.11-2.08,18.14,18.14,0,0,0,.3-3.86V26.18c0-.78,0-1.52-.08-2.22a7.16,7.16,0,0,0-.6-2.75,4.21,4.21,0,0,0-1.79-1.78,7.8,7.8,0,0,0-3-.67v-.59h11.35l11.32,27.26,11.75-27.26h10.75Z"/><path d="M363.77,53H346.59v-.59a8,8,0,0,0,3.24-.77,3.08,3.08,0,0,0,1.62-2.75,7.74,7.74,0,0,0-.73-2.8L350.27,45l-2.51-6H336.25l-1.36,3.52-.65,1.58a12.27,12.27,0,0,0-1.18,4.41,3.81,3.81,0,0,0,.43,1.76,3.73,3.73,0,0,0,1.17,1.32,5.41,5.41,0,0,0,2.61.82V53H325.55v-.59a5.55,5.55,0,0,0,2.44-.66,7.07,7.07,0,0,0,2-1.89,14.11,14.11,0,0,0,1.63-2.69c.53-1.1,1.24-2.74,2.11-4.93l9.57-24h1.49L356.21,45a43.69,43.69,0,0,0,2,4.33,6.54,6.54,0,0,0,1.65,2,4.82,4.82,0,0,0,1.44.7,15.06,15.06,0,0,0,2.43.42Zm-16.43-15-5.49-13.2-5.18,13.2Z"/><path d="M59.37,32.77a13.56,13.56,0,0,0-3.78-4.92,12.93,12.93,0,0,0-3.66-2,33.63,33.63,0,0,0-5.66-1.33,28.67,28.67,0,0,0,4.07-1.73,10.14,10.14,0,0,0,2.5-1.95,11.31,11.31,0,0,0,3.09-8.19,11.4,11.4,0,0,0-1.36-5.55,10.69,10.69,0,0,0-3.82-4,16.44,16.44,0,0,0-7.18-2C42.78,1,41.12,1,38.58,1h-25v.87a12.27,12.27,0,0,1,3.54.62A6,6,0,0,1,19.54,4a6.17,6.17,0,0,1,1.63,3.08,28.75,28.75,0,0,1,.42,5.78V24.71H.07s-.17.38,0,.44c3.87.09,14,.7,21.49,1.44l8.32.79A102.11,102.11,0,0,1,42,29.31a12.65,12.65,0,0,1,9,10.07,9.9,9.9,0,0,1-3.07,9c-2.37,2.22-5.59,3.35-9.68,3.35-3.15,0-5.36-.85-6.66-2.55a7.8,7.8,0,0,1-1.3-3,21,21,0,0,1-.41-4.6V33.39s.33-3.19-8.32-4.7V40.92a28.8,28.8,0,0,1-.42,5.79,6.17,6.17,0,0,1-1.63,3.08,6.34,6.34,0,0,1-2.38,1.57A11.77,11.77,0,0,1,13.6,52v.87H41.4a47.58,47.58,0,0,0,8.73-.61,13.93,13.93,0,0,0,5.34-2.16,11.94,11.94,0,0,0,3.86-4.62,14.34,14.34,0,0,0,1.39-6.34A15.1,15.1,0,0,0,59.37,32.77ZM43,22.56a8.57,8.57,0,0,1-2.26,1.14,20.23,20.23,0,0,1-3.26.73,34.87,34.87,0,0,1-4.48.3H29.91V2.13h3.54a29.44,29.44,0,0,1,6.06.47,8.55,8.55,0,0,1,3.56,1.71,10.09,10.09,0,0,1,2.88,4A14.46,14.46,0,0,1,47,13.85a11.84,11.84,0,0,1-1,5A9.63,9.63,0,0,1,43,22.56Z"/><line x1="21.59" y1="24.71" x2="29.91" y2="24.73"/></svg>